<?xml version="1.0" encoding="UTF-8" standalone="no"?>
<!DOCTYPE svg PUBLIC "-//W3C//DTD SVG 1.1//EN" "http://www.w3.org/Graphics/SVG/1.1/DTD/svg11.dtd">
<svg width="100%" height="100%" viewBox="0 0 54 54" version="1.1" xmlns="http://www.w3.org/2000/svg" xmlns:xlink="http://www.w3.org/1999/xlink" xml:space="preserve" xmlns:serif="http://www.serif.com/" style="fill-rule:evenodd;clip-rule:evenodd;stroke-miterlimit:10;">
    <g id="Plan-de-travail1" serif:id="Plan de travail1" transform="matrix(0.385411,0,0,0.791556,0,0)">
        <rect x="0" y="0" width="139.332" height="67.855" style="fill:none;"/>
        <clipPath id="_clip1">
            <rect x="0" y="0" width="139.332" height="67.855"/>
        </clipPath>
        <g clip-path="url(#_clip1)">
            <g id="Calque_1-2" transform="matrix(2.594633,0,0,1.263335,-142.297414,-17.868609)">
                <g transform="matrix(1,0,0,1,-0.573067,-0.240502)">
                    <g transform="matrix(1,0,0,1,29.79806,0)">
                        <g transform="matrix(1,0,0,1,-80.512006,14.625)">
                            <path d="M119.27,20.52L146.69,26.03L133.76,12.5L119.27,20.52Z" style="fill:rgb(18,89,156);fill-rule:nonzero;"/>
                        </g>
                        <g transform="matrix(1,0,0,1,-80.512006,14.625)">
                            <path d="M129.67,53.23L146.69,26.03L133.76,12.5L129.67,53.23Z" style="fill:rgb(99,182,223);fill-opacity:0.6;fill-rule:nonzero;"/>
                            <path d="M119.27,20.52L129.67,53.23L133.76,12.5L119.27,20.52Z" style="fill:rgb(0,135,202);fill-opacity:0.6;fill-rule:nonzero;"/>
                            <circle cx="135.72" cy="4.26" r="4.26"/>
                        </g>
                        <g transform="matrix(1,0,0,1,-80.512006,14.625)">
                            <path d="M129.67,53.23L133.76,12.5" style="fill:none;fill-rule:nonzero;stroke:white;stroke-opacity:0.5;stroke-width:0.75px;"/>
                        </g>
                    </g>
                </g>
            </g>
        </g>
    </g>
</svg>
